<mxfile host="app.diagrams.net" modified="2023-10-30T17:04:54.644Z" agent="Mozilla/5.0 (Macintosh; Intel Mac OS X 10.15; rv:109.0) Gecko/20100101 Firefox/119.0" version="21.2.3" etag="F5oE155wljRTJ6-dQ-PA" type="github">
  <diagram name="Page-1" id="14FSKRkjTotUoixQB0Gi">
    <mxGraphModel>
      <root>
        <mxCell id="0" />
        <mxCell id="1" parent="0" />
      </root>
    </mxGraphModel>
  </diagram>
</mxfile>
